 <svg  version="1.0" xmlns="http://www.w3.org/2000/svg"  width="300.000000pt" height="300.000000pt" viewBox="0 0 300.000000 300.000000"  preserveAspectRatio="xMidYMid meet">  <g transform="translate(0.000000,300.000000) scale(0.050000,-0.050000)" fill="#2eb230" stroke="none"> <path d="M2878 5552 c-273 -97 -447 -334 -489 -667 l-13 -106 -40 51 c-164 209 -480 151 -950 -174 -1514 -1046 -1258 -3408 447 -4123 755 -317 1940 -178 2018 237 61 324 -198 546 -506 433 -1096 -399 -2210 360 -2214 1507 -2 680 357 1225 999 1518 88 40 180 97 205 127 l45 55 0 -567 0 -566 -70 -85 c-262 -320 -121 -808 267 -925 108 -33 143 -64 793 -708 801 -793 853 -830 1162 -828 334 3 533 165 756 618 655 1327 310 2829 -850 3705 -486 367 -1248 610 -1560 498z m482 -772 c1136 -371 1759 -1549 1427 -2700 -61 -211 -241 -584 -278 -576 -14 3 -288 265 -608 582 l-581 576 0 144 c0 158 -48 290 -147 407 l-53 63 0 769 c0 422 6 774 13 782 20 20 28 18 227 -47z"/> </g> </svg> 